# xmcd CD database file
#
# Track frame offsets:
#	150
#	18820
#	39150
#	65280
#	84677
#	101342
#	121250
#	134742
#	156712
#	172477
#	190330
#	208945
#	232850
#	253087
#	276437
#	295037
#
# Disc length: 4106 seconds
#
# Revision: 0
# Processed by: cddbd v1.5.2PL0 Copyright (c) Steve Scherf et al.
# Submitted via: CDex 1.51
#
DISCID=ee100810
DTITLE=Forum Stompers - Back from New Orleans
DYEAR=1996
DGENRE=Jazz
TTITLE0=As Long As I Live
TTITLE1=Digga Digga Doo
TTITLE2=Creole Love Call
TTITLE3=Margie
TTITLE4=Friendless Blues
TTITLE5=Burgundy Street Blues
TTITLE6=Harlem Bound
TTITLE7=Carry me Back To Old
TTITLE8=Shout 'Em Aunt Tilly
TTITLE9=When Irish Eyes Are Smiling
TTITLE10=Ti-Pi-Tin
TTITLE11=Exactly Like You
TTITLE12=Mood Indigo
TTITLE13=I Want A Big Butter And Egg Man
TTITLE14=Isle Of Capri
TTITLE15=Farewell Blues
EXTD=YEAR: 1996
EXTT0=
EXTT1=
EXTT2=
EXTT3=
EXTT4=
EXTT5=
EXTT6=
EXTT7=
EXTT8=
EXTT9=
EXTT10=
EXTT11=
EXTT12=
EXTT13=
EXTT14=
EXTT15=
PLAYORDER=
